{
	"asset":{
		"generator":"Khronos glTF Blender I/O v4.2.69",
		"version":"2.0"
	},
	"scene":0,
	"scenes":[
		{
			"name":"Scene",
			"nodes":[
				0
			]
		}
	],
	"nodes":[
		{
			"mesh":0,
			"name":"q"
		}
	],
	"materials":[
		{
			"doubleSided":true,
			"name":"Material_0",
			"pbrMetallicRoughness":{
				"baseColorTexture":{
					"index":0
				},
				"metallicRoughnessTexture":{
					"index":1
				}
			}
		}
	],
	"meshes":[
		{
			"name":"geometry_0",
			"primitives":[
				{
					"attributes":{
						"POSITION":0,
						"NORMAL":1,
						"TEXCOORD_0":2,
						"TANGENT":3
					},
					"indices":4,
					"material":0
				}
			]
		}
	],
	"textures":[
		{
			"sampler":0,
			"source":0
		},
		{
			"sampler":0,
			"source":1
		}
	],
	"images":[
		{
			"mimeType":"image/jpeg",
			"name":"Image_0",
			"uri":"Textures/Image_0.jpg"
		},
		{
			"mimeType":"image/jpeg",
			"name":"Image_1",
			"uri":"Textures/Image_1.jpg"
		}
	],
	"accessors":[
		{
			"bufferView":0,
			"componentType":5126,
			"count":31596,
			"max":[
				0.27426621317863464,
				0.24645915627479553,
				0.11922109127044678
			],
			"min":[
				-0.24284577369689941,
				-0.2401004135608673,
				-0.11525063216686249
			],
			"type":"VEC3"
		},
		{
			"bufferView":1,
			"componentType":5126,
			"count":31596,
			"type":"VEC3"
		},
		{
			"bufferView":2,
			"componentType":5126,
			"count":31596,
			"type":"VEC2"
		},
		{
			"bufferView":3,
			"componentType":5126,
			"count":31596,
			"type":"VEC4"
		},
		{
			"bufferView":4,
			"componentType":5123,
			"count":149364,
			"type":"SCALAR"
		}
	],
	"bufferViews":[
		{
			"buffer":0,
			"byteLength":379152,
			"byteOffset":0,
			"target":34962
		},
		{
			"buffer":0,
			"byteLength":379152,
			"byteOffset":379152,
			"target":34962
		},
		{
			"buffer":0,
			"byteLength":252768,
			"byteOffset":758304,
			"target":34962
		},
		{
			"buffer":0,
			"byteLength":505536,
			"byteOffset":1011072,
			"target":34962
		},
		{
			"buffer":0,
			"byteLength":298728,
			"byteOffset":1516608,
			"target":34963
		}
	],
	"samplers":[
		{
			"magFilter":9729,
			"minFilter":9987
		}
	],
	"buffers":[
		{
			"byteLength":1815336,
			"uri":"cat_blender.bin"
		}
	]
}
