{
	"asset":{
		"generator":"Khronos glTF Blender I/O v4.2.69",
		"version":"2.0"
	},
	"scene":0,
	"scenes":[
		{
			"name":"Scene",
			"nodes":[
				0
			]
		}
	],
	"nodes":[
		{
			"mesh":0,
			"name":"BarramundiFish",
			"rotation":[
				0,
				1,
				0,
				0
			]
		}
	],
	"materials":[
		{
			"name":"7288_barramundi fish_col",
			"normalTexture":{
				"index":0
			},
			"occlusionTexture":{
				"index":1
			},
			"pbrMetallicRoughness":{
				"baseColorTexture":{
					"index":2
				},
				"metallicRoughnessTexture":{
					"index":1
				}
			}
		}
	],
	"meshes":[
		{
			"name":"barramundi_fish_Hero",
			"primitives":[
				{
					"attributes":{
						"POSITION":0,
						"NORMAL":1,
						"TEXCOORD_0":2,
						"TANGENT":3
					},
					"indices":4,
					"material":0
				}
			]
		}
	],
	"textures":[
		{
			"sampler":0,
			"source":0
		},
		{
			"sampler":0,
			"source":1
		},
		{
			"sampler":0,
			"source":2
		}
	],
	"images":[
		{
			"mimeType":"image/png",
			"name":"Image_2",
			"uri":"Textures/Image_2.png"
		},
		{
			"mimeType":"image/png",
			"name":"Image_1",
			"uri":"Textures/Image_1.png"
		},
		{
			"mimeType":"image/png",
			"name":"Image_0",
			"uri":"Textures/Image_0.png"
		}
	],
	"accessors":[
		{
			"bufferView":0,
			"componentType":5126,
			"count":2188,
			"max":[
				0.06906196475028992,
				0.2866283059120178,
				0.3253729045391083
			],
			"min":[
				-0.0738416239619255,
				-0.000878453254699707,
				-0.3177383244037628
			],
			"type":"VEC3"
		},
		{
			"bufferView":1,
			"componentType":5126,
			"count":2188,
			"type":"VEC3"
		},
		{
			"bufferView":2,
			"componentType":5126,
			"count":2188,
			"type":"VEC2"
		},
		{
			"bufferView":3,
			"componentType":5126,
			"count":2188,
			"type":"VEC4"
		},
		{
			"bufferView":4,
			"componentType":5123,
			"count":11592,
			"type":"SCALAR"
		}
	],
	"bufferViews":[
		{
			"buffer":0,
			"byteLength":26256,
			"byteOffset":0,
			"target":34962
		},
		{
			"buffer":0,
			"byteLength":26256,
			"byteOffset":26256,
			"target":34962
		},
		{
			"buffer":0,
			"byteLength":17504,
			"byteOffset":52512,
			"target":34962
		},
		{
			"buffer":0,
			"byteLength":35008,
			"byteOffset":70016,
			"target":34962
		},
		{
			"buffer":0,
			"byteLength":23184,
			"byteOffset":105024,
			"target":34963
		}
	],
	"samplers":[
		{
			"magFilter":9729,
			"minFilter":9987
		}
	],
	"buffers":[
		{
			"byteLength":128208,
			"uri":"fish_blender.bin"
		}
	]
}
